{"title":"Saturday.Night.Live.S05.DVDRip.XviD-OSiTV","uid":13431915,"size":11510378496,"categoryP":"video","categoryS":"tv_shows","magnet":"?xt=urn:btih:ab90e255b44678509ac9044bfc6e01977a4681e5&amp;dn=Saturday.Night.Live.S05.DVDRip.XviD-OSiTV&amp;tr=udp%3A%2F%2Ftracker.leechers-paradise.org%3A6969&amp;tr=udp%3A%2F%2Fzer0day.ch%3A1337&amp;tr=udp%3A%2F%2Fopen.demonii.com%3A1337&amp;tr=udp%3A%2F%2Ftracker.coppersurfer.tk%3A6969&amp;tr=udp%3A%2F%2Fexodus.desync.com%3A6969","seeders":0,"leechers":1,"uploader":"imPROvise","files":20,"time":1454634506,"description":"1 Steve Martin/Blondie 1979-10-13\r\n2 Eric Idle/Bob Dylan 1979-10-20\r\n3 Bill Russell/Chicago 1979-11-03\r\n4 Buck Henry/Tom Petty and the Heartbreakers 1979-11-10\r\n5 Bea Arthur/The Roches 1979-11-17\r\n6 Howard Hesseman/Randy Newman 1979-12-08\r\n7 Martin Sheen/David Bowie 1979-12-15\r\n8 Ted Knight/Desmond Child and Rouge 1979-12-22\r\n9 Teri Garr/The B-52's 1980-01-26\r\n10 Chevy Chase/Marianne Faithfull 1980-02-09\r\n11 Elliott Gould/Gary Numan 1980-02-16\r\n12 Kirk Douglas/Sam and Dave 1980-02-23\r\n13 Rodney Dangerfield/J. Geils Band 1980-03-08\r\n14 Paul Simon/James Taylor 1980-03-15\r\n15 Richard Benjamin, Paula Prentiss/The Grateful Dead 1980-04-05\r\n16 Burt Reynolds/Anne Murray 1980-04-12\r\n17 Strother Martin/The Specials 1980-04-19\r\n18 Bob Newhart/The Amazing Rhythm Aces, Bruce Cockburn 1980-05-10\r\n19 Steve Martin/Paul and Linda McCartney 1980-05-17\r\n20 Buck Henry/Andrew Gold 1980-05-24\r\nFormat: AVI\r\nFormat/Info: Audio Video Interleave\r\nFile size: 549 MiB\r\nDuration: 1h 7mn\r\nOverall bit rate mode: Variable\r\nOverall bit rate: 1 130 Kbps\r\nWriting application: VirtualDubMod 1.5.10.2 (build 2540/release)\r\nWriting library: VirtualDubMod build 2540/release\r\n\r\nVideo\r\nID: 0\r\nFormat: MPEG-4 Visual\r\nFormat profile: Advanced   \r\nFormat settings, BVOP: 1\r\nFormat settings, QPel: No\r\nFormat settings, GMC: No warppoints\r\nFormat settings, Matrix: Default (H.263)\r\nCodec ID: XVID\r\nCodec ID/Hint: XviD\r\nDuration: 1h 7mn\r\nBit rate: 1 023 Kbps\r\nWidth: 576 pixels\r\nHeight: 432 pixels\r\nDisplay aspect ratio: 4:3\r\nFrame rate: 29.970 fps\r\nColor space: YUV\r\nChroma subsampling: 4:2:0\r\nBit depth: 8 bits\r\nScan type: Progressive\r\nCompression mode: Lossy\r\nBits/(Pixel*Frame): 0.137\r\nStream size: 497 MiB (90%)\r\nWriting library: XviD 1.0.3 (UTC 2004-12-20)\r\n\r\nAudio\r\nID: 1\r\nFormat: MPEG Audio\r\nFormat version: Version 1\r\nFormat profile: Layer 3\r\nCodec ID: 55\r\nCodec ID/Hint: MP3\r\nDuration: 1h 7mn\r\nBit rate mode: Variable\r\nBit rate: 96.0 Kbps\r\nChannel(s): 1 channel\r\nSampling rate: 48.0 KHz\r\nCompression mode: Lossy\r\nStream size: 45.4 MiB (8%)\r\nAlignment: Aligned on interleaves\r\nInterleave, duration: 24 ms (0.72 video frame)\r\nInterleave, preload duration: 558 ms\r\nWriting library: LAME3.90\r\nEncoding settings: -m m -V 4 -q 2 -lowpass 15.4 --abr 96","torrent":{"xt":"urn:btih:ab90e255b44678509ac9044bfc6e01977a4681e5","amp;dn":"Saturday.Night.Live.S05.DVDRip.XviD-OSiTV","amp;tr":["udp%3A%2F%2Ftracker.leechers-paradise.org%3A6969","udp%3A%2F%2Fzer0day.ch%3A1337","udp%3A%2F%2Fopen.demonii.com%3A1337","udp%3A%2F%2Ftracker.coppersurfer.tk%3A6969","udp%3A%2F%2Fexodus.desync.com%3A6969"],"infoHash":"ab90e255b44678509ac9044bfc6e01977a4681e5","infoHashBuffer":{"type":"Buffer","data":[171,144,226,85,180,70,120,80,154,201,4,75,252,110,1,151,122,70,129,229]},"announce":[],"urlList":[]}}